HIERARCHY
ROOT Hips
{
	OFFSET 0.00000 0.00000 0.00000
	CHANNELS 6 Xposition Yposition Zposition Zrotation Yrotation Xrotation 
	JOINT LHipJoint
	{
		OFFSET 0 0 0
		CHANNELS 3 Zrotation Yrotation Xrotation
		JOINT LeftHip
		{
			OFFSET 1.62964 -1.40469 0.78906
			CHANNELS 3 Zrotation Yrotation Xrotation
			JOINT LeftKnee
			{
				OFFSET 2.29640 -6.30932 0.00000
				CHANNELS 3 Zrotation Yrotation Xrotation
				JOINT LeftAnkle
				{
					OFFSET 2.29451 -6.30412 0.00000
					CHANNELS 3 Zrotation Yrotation Xrotation
					JOINT LeftToe
					{
						OFFSET 0.03611 -0.09921 1.56387
						CHANNELS 3 Zrotation Yrotation Xrotation
						End Site
						{
							OFFSET 0.00000 -0.00000 0.80291
						}
					}
				}
			}
		}
	}
	JOINT RHipJoint
	{
		OFFSET 0 0 0
		CHANNELS 3 Zrotation Yrotation Xrotation
		JOINT RightHip
		{
			OFFSET -1.73712 -1.40469 0.78906
			CHANNELS 3 Zrotation Yrotation Xrotation
			JOINT RightKnee
			{
				OFFSET -2.28137 -6.26801 0.00000
				CHANNELS 3 Zrotation Yrotation Xrotation
				JOINT RightAnkle
				{
					OFFSET -2.28681 -6.28298 0.00000
					CHANNELS 3 Zrotation Yrotation Xrotation
					JOINT RightToe
					{
						OFFSET -0.15927 -0.43759 1.61103
						CHANNELS 3 Zrotation Yrotation Xrotation
						End Site
						{
							OFFSET -0.00000 -0.00000 0.84630
						}
					}
				}
			}
		}
	}
	JOINT lowerback
	{
		OFFSET 0 0 0
		CHANNELS 3 Zrotation Yrotation Xrotation
		JOINT Chest
		{
			OFFSET -0.04227 2.04338 -0.00225
			CHANNELS 3 Zrotation Yrotation Xrotation
			JOINT Chest2
			{
				OFFSET -0.02148 2.04482 -0.04273
				CHANNELS 3 Zrotation Yrotation Xrotation
				JOINT lowerneck
				{
					OFFSET 0 0 0
					CHANNELS 3 Zrotation Yrotation Xrotation
					JOINT Neck
					{
						OFFSET 0.09180 1.44629 0.19359
						CHANNELS 3 Zrotation Yrotation Xrotation
						JOINT Head
						{
							OFFSET 0.00887 1.40645 0.14750
							CHANNELS 3 Zrotation Yrotation Xrotation
							End Site
							{
								OFFSET -0.00669 1.50671 0.03707
							}
						}
					}
				}
				JOINT LeftCollar
				{
					OFFSET 0 0 0
					CHANNELS 3 Zrotation Yrotation Xrotation
					JOINT LeftShoulder
					{
						OFFSET 2.17674 1.86763 -0.06520
CHANNELS 3 Zrotation Xrotation Yrotation
						JOINT LeftElbow
						{
OFFSET 0 -4.657760 0.000000
CHANNELS 3 Zrotation Xrotation Yrotation
							JOINT LeftWrist
							{
OFFSET 0 -3.555390 0.000000
CHANNELS 3 Zrotation Xrotation Yrotation
								JOINT lhand
								{
									OFFSET 0 0 0
CHANNELS 3 Zrotation Xrotation Yrotation
									JOINT LFingers
									{
OFFSET 0 -0.707260 0.000000
CHANNELS 3 Zrotation Xrotation Yrotation
										End Site
										{
OFFSET 0 -0.570220 0.000000
										}
									}
								}
								JOINT LThumb
								{
OFFSET 0 0.000000 0.000000
CHANNELS 3 Zrotation Xrotation Yrotation
									End Site
									{
OFFSET 0 -0.578920 0.578920
									}
								}
							}
						}
					}
				}
				JOINT RightCollar
				{
					OFFSET 0 0 0
					CHANNELS 3 Zrotation Yrotation Xrotation
					JOINT RightShoulder
					{
						OFFSET -2.80694 1.55459 -0.32496
CHANNELS 3 Zrotation Xrotation Yrotation
						JOINT RightElbow
						{
OFFSET 0 -4.719250 -0.000000
CHANNELS 3 Zrotation Xrotation Yrotation
							JOINT RightWrist
							{
OFFSET 0 -3.569900 0.000000
CHANNELS 3 Zrotation Xrotation Yrotation
								JOINT rhand
								{
									OFFSET 0 0 0
CHANNELS 3 Zrotation Xrotation Yrotation
									JOINT RFingers
									{
OFFSET 0 -0.507760 0.000000
CHANNELS 3 Zrotation Xrotation Yrotation
										End Site
										{
OFFSET 0 -0.409370 0.000000
										}
									}
								}
								JOINT RThumb
								{
OFFSET 0 0.000000 0.000000
CHANNELS 3 Zrotation Xrotation Yrotation
									End Site
									{
OFFSET 0 -0.415620 0.415620
									}
								}
							}
						}
					}
				}
			}
		}
	}
}
MOTION
Frames: 10
Frame Time: 0.008333333333333333
1.595806 16.992360 12.914824 167.558975 -11.021175 -144.293207 0.000000 0.000000 0.000000 -17.992816 -20.522017 -10.068136 3.711431 11.766046 34.909460 0.910665 -19.500054 -20.490440 1.902739 -8.659672 -24.736974 0.000000 0.000000 0.000000 -20.366579 18.334904 -44.193044 -0.229955 -3.086353 8.519366 1.685107 -22.913732 -14.828831 -1.052418 6.521225 -18.305136 -8.540127 -7.506791 -25.186030 -2.446097 -8.157979 -2.868870 -0.866836 -4.499530 11.484829 -3.308502 -5.917072 -3.437128 -1.565441 -5.814360 23.647283 -0.326710 -2.567122 7.917481 0.000000 0.000000 0.000000 24.800246 13.817102 -27.681532 27.850525 -38.978254 10.029570 22.323331 -18.782679 9.743897 0.000000 0.000000 0.000000 -7.125000 0.000000 0.000000 -3.317131 19.472290 -2.024204 0.000000 0.000000 0.000000 -0.063024 22.420399 1.248107 -18.341590 -28.591072 -4.712246 -12.978789 13.898575 52.941959 0.000000 0.000000 0.000000 7.125000 0.000000 0.000000 66.177478 76.085829 -52.510485
1.619518 17.012557 12.874955 167.411152 -10.797050 -143.803793 0.000000 0.000000 0.000000 -17.986801 -20.415062 -10.392453 3.655268 11.686848 34.633117 0.867087 -19.237723 -20.082358 1.999694 -8.864376 -25.372844 0.000000 0.000000 0.000000 -20.700763 18.533455 -44.511830 -0.223323 -3.042002 8.395713 1.768343 -23.344054 -14.756084 -1.144535 6.791322 -19.099451 -8.448634 -7.791154 -24.768036 -2.058594 -8.654382 -3.127476 -0.588528 -4.732638 11.053163 -3.607664 -5.577674 -2.831711 -1.714775 -5.357606 22.896506 -0.267937 -2.399355 7.561894 0.000000 0.000000 0.000000 24.331334 14.299574 -27.762303 27.704083 -38.842204 9.937601 21.979231 -18.540724 9.852855 0.000000 0.000000 0.000000 -7.125000 0.000000 0.000000 -3.564466 19.382697 -2.184267 0.000000 0.000000 0.000000 -0.773890 22.645717 2.901765 -19.074230 -29.506692 -5.069373 -13.216919 12.654026 52.444951 0.000000 0.000000 0.000000 7.125000 0.000000 0.000000 64.132796 76.021078 -50.587460
1.643530 17.031519 12.833866 167.193010 -10.659502 -143.295735 0.000000 0.000000 0.000000 -17.982929 -20.333947 -10.730410 3.598328 11.605583 34.350846 0.823657 -19.035238 -19.696689 2.094866 -9.059892 -25.983692 0.000000 0.000000 0.000000 -21.193012 18.788499 -44.725203 -0.214906 -2.984165 8.234700 1.852803 -23.836864 -15.018739 -1.141808 6.783928 -19.077486 -8.408075 -8.171424 -24.514124 -1.662900 -9.257241 -3.419376 -0.332179 -5.021927 10.691089 -3.990640 -5.104974 -1.634041 -1.829765 -4.757397 21.781939 -0.161753 -2.152204 6.989919 0.000000 0.000000 0.000000 23.904222 14.944173 -27.859409 27.574855 -38.721829 9.856611 21.557983 -18.167473 10.234935 0.000000 0.000000 0.000000 -7.125000 0.000000 0.000000 -3.873527 19.007555 -2.407863 0.000000 0.000000 0.000000 -1.548199 23.071102 4.705650 -19.849370 -30.455557 -5.457124 -13.330438 11.381093 52.048113 0.000000 0.000000 0.000000 7.125000 0.000000 0.000000 62.560759 75.930433 -49.077663
1.667523 17.049583 12.790978 166.914925 -10.614656 -142.793085 0.000000 0.000000 0.000000 -17.983593 -20.282366 -11.043460 3.536191 11.516003 34.040827 0.773106 -18.876981 -19.275425 2.186869 -9.244448 -26.563354 0.000000 0.000000 0.000000 -21.809934 19.093217 -44.790043 -0.202465 -2.896534 7.990931 1.934069 -24.364904 -15.601307 -1.020555 6.411239 -17.987503 -8.316292 -8.530308 -24.422484 -1.388533 -9.795822 -3.552443 -0.251246 -5.273963 10.566328 -4.265305 -4.713823 -0.782889 -1.838345 -4.296733 20.864212 -0.061645 -1.958106 6.545336 0.000000 0.000000 0.000000 23.769931 15.266554 -28.095125 27.436641 -38.592226 9.770373 21.107415 -17.601811 10.680167 0.000000 0.000000 0.000000 -7.125000 0.000000 0.000000 -4.203986 18.568804 -2.654091 0.000000 0.000000 0.000000 -2.021816 23.318867 6.239707 -20.628629 -31.389656 -5.856567 -12.851675 9.809532 51.691556 0.000000 0.000000 0.000000 7.125000 0.000000 0.000000 61.510088 75.615721 -47.809460
1.691458 17.066207 12.747571 166.608618 -10.668529 -142.248967 0.000000 0.000000 0.000000 -17.935877 -20.267127 -11.404949 3.469388 11.418646 33.705121 0.701994 -18.743376 -18.714375 2.268218 -9.403605 -27.066298 0.000000 0.000000 0.000000 -22.514287 19.401679 -44.775113 -0.184841 -2.768701 7.635368 2.013032 -24.922491 -16.435109 -0.766428 5.586365 -15.589918 -7.982433 -8.611811 -24.402551 -1.459799 -9.929042 -3.260913 -0.582874 -5.307595 10.837079 -4.092449 -4.856587 -2.111400 -1.580600 -4.557171 21.292272 -0.058643 -2.090864 6.917060 0.000000 0.000000 0.000000 24.409097 14.362255 -28.827261 27.196366 -38.365805 9.620836 20.773247 -16.826500 11.023801 0.000000 0.000000 0.000000 -7.125000 0.000000 0.000000 -4.448339 18.231020 -2.842031 0.000000 0.000000 0.000000 -1.493321 22.781829 6.631980 -21.365151 -32.251472 -6.243915 -11.105339 7.500684 51.240715 0.000000 0.000000 0.000000 7.125000 0.000000 0.000000 60.914713 74.771298 -46.394906
1.715906 17.081145 12.704678 166.328694 -10.775756 -141.703382 0.000000 0.000000 0.000000 -17.812234 -20.236352 -11.807479 3.384043 11.291901 33.271134 0.453742 -19.278897 -17.176458 1.485125 -7.604264 -21.567475 0.000000 0.000000 0.000000 -23.203395 19.701347 -44.733285 -0.164945 -2.615143 7.209082 2.131497 -25.629000 -17.142561 -0.569099 4.809275 -13.369766 -7.651725 -8.729884 -24.433554 -1.472288 -10.154240 -3.192913 -0.865471 -5.395534 10.890822 -3.686462 -4.647345 -1.692120 -1.764934 -4.382274 20.442908 -0.158393 -2.008008 6.549667 0.000000 0.000000 0.000000 25.037417 13.865222 -29.767537 26.977932 -38.157926 9.485591 20.971963 -16.083142 11.545600 0.000000 0.000000 0.000000 -7.125000 0.000000 0.000000 -4.323390 17.660397 -2.815455 0.000000 0.000000 0.000000 -1.130312 22.656747 6.957927 -22.011602 -32.987598 -6.593299 -8.580823 4.602520 50.434057 0.000000 0.000000 0.000000 7.125000 0.000000 0.000000 59.999725 73.485823 -44.229581
1.739324 17.094441 12.661358 166.046576 -10.858623 -141.230085 0.000000 0.000000 0.000000 -17.746342 -20.227109 -12.116490 3.291639 11.152226 32.795690 0.196362 -19.787601 -15.502302 0.720268 -5.062666 -14.166197 0.000000 0.000000 0.000000 -23.765410 19.869169 -44.717848 -0.151317 -2.506225 6.906988 2.233751 -26.191418 -17.588007 -0.464716 4.369046 -12.117936 -7.329114 -8.859438 -24.512033 -1.474645 -10.377465 -3.060639 -1.146365 -5.477753 11.044492 -3.489742 -4.496792 -1.497959 -1.834841 -4.267669 19.810830 -0.197916 -1.961380 6.303221 0.000000 0.000000 0.000000 25.667102 13.210713 -30.664827 26.779035 -37.967459 9.362972 21.077737 -15.276915 11.999896 0.000000 0.000000 0.000000 -7.125000 0.000000 0.000000 -4.263198 17.169209 -2.822550 0.000000 0.000000 0.000000 -0.798510 22.407338 7.256932 -22.561530 -33.603859 -6.894902 -7.656930 3.103041 50.038103 0.000000 0.000000 0.000000 7.125000 0.000000 0.000000 59.377108 72.969539 -43.143046
1.762345 17.106364 12.617825 165.774017 -10.910057 -140.843962 0.000000 0.000000 0.000000 -17.733526 -20.209262 -12.308653 3.201636 11.014134 32.327984 -0.016442 -20.125307 -14.023064 0.186181 -2.597368 -7.168546 0.000000 0.000000 0.000000 -24.162691 19.897968 -44.732720 -0.144346 -2.448552 6.747137 2.293001 -26.513132 -17.847912 -0.422567 4.171807 -11.560574 -7.067488 -8.977440 -24.429377 -1.425861 -10.586659 -2.962425 -1.304662 -5.557198 11.092889 -3.522476 -4.416149 -1.529045 -1.778866 -4.215786 19.483607 -0.170767 -1.949142 6.205411 0.000000 0.000000 0.000000 26.183131 12.491252 -31.487790 26.574565 -37.770187 9.237485 21.011363 -14.263621 12.428205 0.000000 0.000000 0.000000 -7.125000 0.000000 0.000000 -4.323406 16.721306 -2.905695 0.000000 0.000000 0.000000 -0.576906 22.245744 7.582977 -23.076673 -34.170746 -7.182050 -8.287971 2.944241 50.110142 0.000000 0.000000 0.000000 7.125000 0.000000 0.000000 59.175162 73.234353 -43.253461
1.785711 17.117309 12.574367 165.527694 -10.930089 -140.554736 0.000000 0.000000 0.000000 -17.754943 -20.144571 -12.370474 3.121692 10.889450 31.908017 -0.143092 -20.193978 -13.009230 0.022665 -0.964370 -2.650755 0.000000 0.000000 0.000000 -24.371549 19.802516 -44.772302 -0.143392 -2.440342 6.724333 2.289184 -26.533305 -18.019336 -0.405751 4.089068 -11.327283 -6.900913 -9.056302 -24.006267 -1.300095 -10.766601 -2.996310 -1.249363 -5.634699 10.839946 -3.751941 -4.403087 -1.678008 -1.614025 -4.218907 19.459753 -0.084566 -1.962302 6.233999 0.000000 0.000000 0.000000 26.508405 11.815652 -32.236583 26.338052 -37.540448 9.092858 20.768404 -12.944401 12.887824 0.000000 0.000000 0.000000 -7.125000 0.000000 0.000000 -4.507935 16.257143 -3.075238 0.000000 0.000000 0.000000 -0.516650 22.388388 7.966298 -23.611923 -34.750988 -7.484356 -10.084263 3.784066 50.597598 0.000000 0.000000 0.000000 7.125000 0.000000 0.000000 59.429193 74.116539 -44.411250
1.809876 17.128546 12.531345 165.374541 -10.946482 -140.402352 0.000000 0.000000 0.000000 -17.724389 -19.915379 -12.264882 3.036727 10.753921 31.454714 -0.192732 -19.999958 -12.417857 0.007273 -0.497290 -1.366496 0.000000 0.000000 0.000000 -24.405643 19.745641 -44.746520 -0.143238 -2.439264 6.721255 2.248317 -26.400623 -18.230211 -0.373504 3.924371 -10.864128 -6.582138 -8.984420 -23.544651 -1.340577 -10.772142 -2.968835 -1.390664 -5.623617 10.566040 -3.841217 -4.633357 -2.000862 -1.249381 -4.573084 19.774219 0.013791 -2.119072 6.405469 0.000000 0.000000 0.000000 27.163117 10.960993 -33.156428 26.032899 -37.240759 8.907689 20.906781 -11.799289 13.426709 0.000000 0.000000 0.000000 -7.125000 0.000000 0.000000 -4.432974 15.673389 -3.079625 0.000000 0.000000 0.000000 -0.145079 22.579946 8.086128 -24.047525 -35.213604 -7.734327 -10.413659 3.499462 50.671328 0.000000 0.000000 0.000000 7.125000 0.000000 0.000000 59.449357 74.272155 -44.592879
